solid cap2
facet normal 1.0 1.1278959165307684e-32 3.0531133177191785e-16
  outer loop
    vertex 14.913375005722042 16.95025628668139 6.23875192965141
    vertex 14.913375005722042 15.262442730413225 4.997762443299962
    vertex 14.913375005722042 16.616938239080085 5.3454660964065015
  endloop
endfacet
facet normal 1.0 1.1278959165307684e-32 3.0531133177191785e-16
  outer loop
    vertex 14.913375005722042 15.262442730413225 4.997762443299962
    vertex 14.913375005722042 16.95025628668139 6.23875192965141
    vertex 14.913375005722042 15.262442786136463 12.698748927633181
  endloop
endfacet
facet normal 1.0 1.1278959165307684e-32 3.0531133177191785e-16
  outer loop
    vertex 14.913375005722042 15.262442786136463 12.698748927633181
    vertex 14.913375005722042 16.95025628668139 6.23875192965141
    vertex 14.913375005722042 17.28411305766205 7.790933682363845
  endloop
endfacet
facet normal 1.0 1.1278959165307684e-32 3.0531133177191785e-16
  outer loop
    vertex 14.913375005722042 15.262442786136463 12.698748927633181
    vertex 14.913375005722042 17.28411305766205 7.790933682363845
    vertex 14.913375005722042 17.33215816637178 9.377886685853621
  endloop
endfacet
facet normal 1.0 1.1278959165307684e-32 3.0531133177191785e-16
  outer loop
    vertex 14.913375005722042 15.262442786136463 12.698748927633181
    vertex 14.913375005722042 17.33215816637178 9.377886685853621
    vertex 14.913375005722042 17.09281206956995 10.947422348882364
  endloop
endfacet
facet normal 1.0 1.1278959165307684e-32 3.0531133177191785e-16
  outer loop
    vertex 14.913375005722042 15.262442786136463 12.698748927633181
    vertex 14.913375005722042 17.09281206956995 10.947422348882364
    vertex 14.913375005722042 16.814143048098046 11.859235654117484
  endloop
endfacet
facet normal 1.0 1.1278959165307684e-32 3.0531133177191785e-16
  outer loop
    vertex 14.913375005722042 15.262442786136463 12.698748927633181
    vertex 14.913375005722042 16.814143048098046 11.859235654117484
    vertex 14.913375005722042 16.135186933133202 13.294417564472388
  endloop
endfacet
facet normal 1.0 1.1278959165307684e-32 3.0531133177191785e-16
  outer loop
    vertex 14.913375005722042 15.262442786136463 12.698748927633181
    vertex 14.913375005722042 16.135186933133202 13.294417564472388
    vertex 14.913375005722042 8.593192828641673 16.54924212154204
  endloop
endfacet
facet normal 1.0 1.1278959165307684e-32 3.0531133177191785e-16
  outer loop
    vertex 14.913375005722042 8.593192828641673 16.54924212154204
    vertex 14.913375005722042 16.135186933133202 13.294417564472388
    vertex 14.913375005722038 15.412088623100642 14.339402080222229
  endloop
endfacet
facet normal 1.0 1.1278959165307684e-32 3.0531133177191785e-16
  outer loop
    vertex 14.913375005722042 8.593192828641673 16.54924212154204
    vertex 14.913375005722038 15.412088623100642 14.339402080222229
    vertex 14.913375005722042 14.995592234419197 14.819797366958543
  endloop
endfacet
facet normal 1.0 1.1278959165307684e-32 3.0531133177191785e-16
  outer loop
    vertex 14.913375005722042 8.593192828641673 16.54924212154204
    vertex 14.913375005722042 14.995592234419197 14.819797366958543
    vertex 14.913375005722042 14.308271352885816 15.480592794623481
  endloop
endfacet
facet normal 1.0 1.1278959165307684e-32 3.0531133177191785e-16
  outer loop
    vertex 14.913375005722042 8.593192828641673 16.54924212154204
    vertex 14.913375005722042 14.308271352885816 15.480592794623481
    vertex 14.913375005722042 13.016507800398609 16.40367161937122
  endloop
endfacet
facet normal 1.0 1.1278959165307684e-32 3.0531133177191785e-16
  outer loop
    vertex 14.913375005722042 8.593192828641673 16.54924212154204
    vertex 14.913375005722042 13.016507800398609 16.40367161937122
    vertex 14.913375005722042 11.57927753700218 17.07828131631573
  endloop
endfacet
facet normal 1.0 1.1278959165307684e-32 3.0531133177191785e-16
  outer loop
    vertex 14.913375005722042 8.593192828641673 16.54924212154204
    vertex 14.913375005722042 11.57927753700218 17.07828131631573
    vertex 14.913375005722042 10.043846484826918 17.48223655130024
  endloop
endfacet
facet normal 1.0 1.1278959165307684e-32 3.0531133177191785e-16
  outer loop
    vertex 14.913375005722044 13.896583473750196 1.8823333967377855
    vertex 14.913375005722044 11.075935600349066 0.4526612448035639
    vertex 14.913375005722044 12.551343947759944 1.0390901849304897
  endloop
endfacet
facet normal 1.0 1.1278959165307684e-32 3.0531133177191785e-16
  outer loop
    vertex 14.913375005722044 11.075935600349066 0.4526612448035639
    vertex 14.913375005722044 13.896583473750196 1.8823333967377855
    vertex 14.913375005722044 14.622619382896241 2.500340081387657
  endloop
endfacet
facet normal 1.0 1.1278959165307684e-32 3.0531133177191785e-16
  outer loop
    vertex 14.913375005722044 11.075935600349066 0.4526612448035639
    vertex 14.913375005722044 14.622619382896241 2.500340081387657
    vertex 14.913375005722044 9.518879934053835 0.14233076615981838
  endloop
endfacet
facet normal 1.0 1.1278959165307684e-32 3.0531133177191785e-16
  outer loop
    vertex 14.913375005722044 9.518879934053835 0.14233076615981838
    vertex 14.913375005722044 14.622619382896241 2.500340081387657
    vertex 14.913375005722044 15.478064715112032 3.4400617848830994
  endloop
endfacet
facet normal 1.0 1.1278959165307684e-32 3.0531133177191785e-16
  outer loop
    vertex 14.913375005722044 9.518879934053835 0.14233076615981838
    vertex 14.913375005722044 15.478064715112032 3.4400617848830994
    vertex 14.913375005722036 16.025332859161903 4.220803158738223
  endloop
endfacet
facet normal 1.0 1.1278959165307684e-32 3.0531133177191785e-16
  outer loop
    vertex 14.913375005722044 9.518879934053835 0.14233076615981838
    vertex 14.913375005722036 16.025332859161903 4.220803158738223
    vertex 14.913375005722044 8.566695079931069 0.09329598057465055
  endloop
endfacet
facet normal 1.0 1.1278959165307684e-32 3.0531133177191785e-16
  outer loop
    vertex 14.913375005722044 8.566695079931069 0.09329598057465055
    vertex 14.913375005722036 16.025332859161903 4.220803158738223
    vertex 14.913375005722042 16.616938239080085 5.3454660964065015
  endloop
endfacet
facet normal 1.0 1.1278959165307684e-32 3.0531133177191785e-16
  outer loop
    vertex 14.913375005722044 8.566695079931069 0.09329598057465055
    vertex 14.913375005722042 16.616938239080085 5.3454660964065015
    vertex 14.913375005722044 7.9313813533590585 0.11830517630005433
  endloop
endfacet
facet normal 1.0 1.1278959165307684e-32 3.0531133177191785e-16
  outer loop
    vertex 14.913375005722044 7.9313813533590585 0.11830517630005433
    vertex 14.913375005722042 16.616938239080085 5.3454660964065015
    vertex 14.913375005722044 8.593192717195182 1.1472691528756178
  endloop
endfacet
facet normal 1.0 1.1278959165307684e-32 3.0531133177191785e-16
  outer loop
    vertex 14.913375005722044 7.9313813533590585 0.11830517630005433
    vertex 14.913375005722044 8.593192717195182 1.1472691528756178
    vertex 14.913375005722044 6.6745575180513494 0.30607447947135336
  endloop
endfacet
facet normal 1.0 1.1278959165307684e-32 3.0531133177191785e-16
  outer loop
    vertex 14.913375005722044 8.593192717195182 1.1472691528756178
    vertex 14.913375005722042 16.616938239080085 5.3454660964065015
    vertex 14.913375005722042 15.262442730413225 4.997762443299962
  endloop
endfacet
facet normal 1.0 1.1278959165307684e-32 3.0531133177191785e-16
  outer loop
    vertex 14.913375005722044 6.6745575180513494 0.30607447947135336
    vertex 14.913375005722044 8.593192717195182 1.1472691528756178
    vertex 14.913375005722042 1.9239427597003935 4.997762346784473
  endloop
endfacet
facet normal 1.0 1.1278959165307684e-32 3.0531133177191785e-16
  outer loop
    vertex 14.913375005722044 6.6745575180513494 0.30607447947135336
    vertex 14.913375005722042 1.9239427597003935 4.997762346784473
    vertex 14.913375005722044 5.163400303421393 0.7930369109328694
  endloop
endfacet
facet normal 1.0 1.1278959165307684e-32 3.0531133177191785e-16
  outer loop
    vertex 14.913375005722044 5.163400303421393 0.7930369109328694
    vertex 14.913375005722042 1.9239427597003935 4.997762346784473
    vertex 14.913375005722044 4.307802021401756 1.2137645148136014
  endloop
endfacet
facet normal 1.0 1.1278959165307684e-32 3.0531133177191785e-16
  outer loop
    vertex 14.913375005722044 4.307802021401756 1.2137645148136014
    vertex 14.913375005722042 1.9239427597003935 4.997762346784473
    vertex 14.913375005722044 2.9994895322527153 2.113234666560908
  endloop
endfacet
facet normal 1.0 1.1278959165307684e-32 3.0531133177191785e-16
  outer loop
    vertex 14.913375005722044 2.9994895322527153 2.113234666560908
    vertex 14.913375005722042 1.9239427597003935 4.997762346784473
    vertex 14.913375005722044 1.8751324503984201 3.2341938641089376
  endloop
endfacet
facet normal 1.0 1.1278959165307684e-32 3.0531133177191785e-16
  outer loop
    vertex 14.913375005722044 1.8751324503984201 3.2341938641089376
    vertex 14.913375005722042 1.9239427597003935 4.997762346784473
    vertex 14.913375005722036 0.9717065144616134 4.5397780629007345
  endloop
endfacet
facet normal 1.0 1.1278959165307684e-32 3.0531133177191785e-16
  outer loop
    vertex 14.913375005722036 0.9717065144616134 4.5397780629007345
    vertex 14.913375005722042 1.9239427597003935 4.997762346784473
    vertex 14.913375005722042 1.9239428154236349 12.698748831117689
  endloop
endfacet
facet normal 1.0 1.1278959165307684e-32 3.0531133177191785e-16
  outer loop
    vertex 14.913375005722036 0.9717065144616134 4.5397780629007345
    vertex 14.913375005722042 1.9239428154236349 12.698748831117689
    vertex 14.913375005722042 0.5483913080167794 5.394099157158067
  endloop
endfacet
facet normal 1.0 1.1278959165307684e-32 3.0531133177191785e-16
  outer loop
    vertex 14.913375005722042 0.5483913080167794 5.394099157158067
    vertex 14.913375005722042 1.9239428154236349 12.698748831117689
    vertex 14.913375005722042 0.13309254165859022 6.595094699876068
  endloop
endfacet
facet normal 1.0 1.1278959165307684e-32 3.0531133177191785e-16
  outer loop
    vertex 14.913375005722042 0.13309254165859022 6.595094699876068
    vertex 14.913375005722042 1.9239428154236349 12.698748831117689
    vertex 14.913375005722042 -0.06175129336892351 7.528420068950913
  endloop
endfacet
facet normal 1.0 1.1278959165307684e-32 3.0531133177191785e-16
  outer loop
    vertex 14.913375005722042 -0.06175129336892351 7.528420068950913
    vertex 14.913375005722042 1.9239428154236349 12.698748831117689
    vertex 14.913375005722042 -0.16164691753325375 8.795260445550719
  endloop
endfacet
facet normal 1.0 1.1278959165307684e-32 3.0531133177191785e-16
  outer loop
    vertex 14.913375005722042 -0.16164691753325375 8.795260445550719
    vertex 14.913375005722042 1.9239428154236349 12.698748831117689
    vertex 14.913375005722042 -0.11549398028803506 9.747589308339943
  endloop
endfacet
facet normal 1.0 1.1278959165307684e-32 3.0531133177191785e-16
  outer loop
    vertex 14.913375005722042 -0.11549398028803506 9.747589308339943
    vertex 14.913375005722042 1.9239428154236349 12.698748831117689
    vertex 14.913375005722042 0.19012234336672015 11.30557739335258
  endloop
endfacet
facet normal 1.0 1.1278959165307684e-32 3.0531133177191785e-16
  outer loop
    vertex 14.913375005722042 0.19012234336672015 11.30557739335258
    vertex 14.913375005722042 1.9239428154236349 12.698748831117689
    vertex 14.913375005722042 0.7720832973704743 12.782753672998044
  endloop
endfacet
facet normal 1.0 1.1278959165307684e-32 3.0531133177191785e-16
  outer loop
    vertex 14.913375005722042 0.7720832973704743 12.782753672998044
    vertex 14.913375005722042 1.9239428154236349 12.698748831117689
    vertex 14.913375005722042 8.593192828641673 16.54924212154204
  endloop
endfacet
facet normal 1.0 1.1278959165307684e-32 3.0531133177191785e-16
  outer loop
    vertex 14.913375005722042 0.7720832973704743 12.782753672998044
    vertex 14.913375005722042 8.593192828641673 16.54924212154204
    vertex 14.913375005722042 10.043846484826918 17.48223655130024
  endloop
endfacet
facet normal 1.0 1.1278959165307684e-32 3.0531133177191785e-16
  outer loop
    vertex 14.913375005722042 0.7720832973704743 12.782753672998044
    vertex 14.913375005722042 10.043846484826918 17.48223655130024
    vertex 14.913375005722042 9.096372260558972 17.588784146707155
  endloop
endfacet
facet normal 1.0 1.1278959165307684e-32 3.0531133177191785e-16
  outer loop
    vertex 14.913375005722042 0.7720832973704743 12.782753672998044
    vertex 14.913375005722042 9.096372260558972 17.588784146707155
    vertex 14.913375005722033 1.6112513690380716 14.130539217358777
  endloop
endfacet
facet normal 1.0 1.1278959165307684e-32 3.0531133177191785e-16
  outer loop
    vertex 14.913375005722033 1.6112513690380716 14.130539217358777
    vertex 14.913375005722042 9.096372260558972 17.588784146707155
    vertex 14.913375005722042 7.8257449582493575 17.569554163272905
  endloop
endfacet
facet normal 1.0 1.1278959165307684e-32 3.0531133177191785e-16
  outer loop
    vertex 14.913375005722033 1.6112513690380716 14.130539217358777
    vertex 14.913375005722042 7.8257449582493575 17.569554163272905
    vertex 14.913375005722042 6.881928514858183 17.434383906336013
  endloop
endfacet
facet normal 1.0 1.1278959165307684e-32 3.0531133177191785e-16
  outer loop
    vertex 14.913375005722033 1.6112513690380716 14.130539217358777
    vertex 14.913375005722042 6.881928514858183 17.434383906336013
    vertex 14.913375005722042 2.227057449532847 14.858442386977913
  endloop
endfacet
facet normal 1.0 1.1278959165307684e-32 3.0531133177191785e-16
  outer loop
    vertex 14.913375005722042 2.227057449532847 14.858442386977913
    vertex 14.913375005722042 6.881928514858183 17.434383906336013
    vertex 14.913375005722042 5.3594251563921045 16.984149165524734
  endloop
endfacet
facet normal 1.0 1.1278959165307684e-32 3.0531133177191785e-16
  outer loop
    vertex 14.913375005722042 2.227057449532847 14.858442386977913
    vertex 14.913375005722042 5.3594251563921045 16.984149165524734
    vertex 14.913375005722042 2.6800287541689083 15.304610287065941
  endloop
endfacet
facet normal 1.0 1.1278959165307684e-32 3.0531133177191785e-16
  outer loop
    vertex 14.913375005722042 2.6800287541689083 15.304610287065941
    vertex 14.913375005722042 5.3594251563921045 16.984149165524734
    vertex 14.913375005722042 3.9432677578189947 16.26635630240427
  endloop
endfacet
facet normal -1.0 -1.1278959165307684e-32 -3.0531133177191785e-16
  outer loop
    vertex 8.513375005722045 11.075935600349066 0.45266124480356246
    vertex 8.513375005722045 13.896583473750196 1.8823333967377842
    vertex 8.513375005722045 12.551343947759944 1.0390901849304883
  endloop
endfacet
facet normal -1.0 -1.1278959165307684e-32 -3.0531133177191785e-16
  outer loop
    vertex 8.513375005722045 13.896583473750196 1.8823333967377842
    vertex 8.513375005722045 11.075935600349066 0.45266124480356246
    vertex 8.513375005722045 14.622619382896241 2.5003400813876553
  endloop
endfacet
facet normal -1.0 -1.1278959165307684e-32 -3.0531133177191785e-16
  outer loop
    vertex 8.513375005722045 14.622619382896241 2.5003400813876553
    vertex 8.513375005722045 11.075935600349066 0.45266124480356246
    vertex 8.513375005722045 9.518879934053835 0.14233076615981696
  endloop
endfacet
facet normal -1.0 -1.1278959165307684e-32 -3.0531133177191785e-16
  outer loop
    vertex 8.513375005722045 14.622619382896241 2.5003400813876553
    vertex 8.513375005722045 9.518879934053835 0.14233076615981696
    vertex 8.513375005722045 15.478064715112032 3.440061784883097
  endloop
endfacet
facet normal -1.0 -1.1278959165307684e-32 -3.0531133177191785e-16
  outer loop
    vertex 8.513375005722045 15.478064715112032 3.440061784883097
    vertex 8.513375005722045 9.518879934053835 0.14233076615981696
    vertex 8.513375005722034 16.025332859161903 4.220803158738222
  endloop
endfacet
facet normal -1.0 -1.1278959165307684e-32 -3.0531133177191785e-16
  outer loop
    vertex 8.513375005722034 16.025332859161903 4.220803158738222
    vertex 8.513375005722045 9.518879934053835 0.14233076615981696
    vertex 8.513375005722045 8.566695079931069 0.09329598057464915
  endloop
endfacet
facet normal -1.0 -1.1278959165307684e-32 -3.0531133177191785e-16
  outer loop
    vertex 8.513375005722034 16.025332859161903 4.220803158738222
    vertex 8.513375005722045 8.566695079931069 0.09329598057464915
    vertex 8.513375005722041 16.616938239080085 5.345466096406499
  endloop
endfacet
facet normal -1.0 -1.1278959165307684e-32 -3.0531133177191785e-16
  outer loop
    vertex 8.513375005722041 16.616938239080085 5.345466096406499
    vertex 8.513375005722045 8.566695079931069 0.09329598057464915
    vertex 8.513375005722045 7.9313813533590585 0.11830517630005151
  endloop
endfacet
facet normal -1.0 -1.1278959165307684e-32 -3.0531133177191785e-16
  outer loop
    vertex 8.513375005722041 16.616938239080085 5.345466096406499
    vertex 8.513375005722045 7.9313813533590585 0.11830517630005151
    vertex 8.513375005722045 8.593192717195182 1.1472691528756165
  endloop
endfacet
facet normal -1.0 -1.1278959165307684e-32 -3.0531133177191785e-16
  outer loop
    vertex 8.513375005722045 8.593192717195182 1.1472691528756165
    vertex 8.513375005722045 7.9313813533590585 0.11830517630005151
    vertex 8.513375005722045 6.6745575180513494 0.3060744794713505
  endloop
endfacet
facet normal -1.0 -1.1278959165307684e-32 -3.0531133177191785e-16
  outer loop
    vertex 8.513375005722041 16.616938239080085 5.345466096406499
    vertex 8.513375005722045 8.593192717195182 1.1472691528756165
    vertex 8.513375005722041 15.262442730413225 4.997762443299961
  endloop
endfacet
facet normal -1.0 -1.1278959165307684e-32 -3.0531133177191785e-16
  outer loop
    vertex 8.513375005722045 8.593192717195182 1.1472691528756165
    vertex 8.513375005722045 6.6745575180513494 0.3060744794713505
    vertex 8.513375005722041 1.9239427597003935 4.99776234678447
  endloop
endfacet
facet normal -1.0 -1.1278959165307684e-32 -3.0531133177191785e-16
  outer loop
    vertex 8.513375005722041 1.9239427597003935 4.99776234678447
    vertex 8.513375005722045 6.6745575180513494 0.3060744794713505
    vertex 8.513375005722045 5.163400303421393 0.793036910932868
  endloop
endfacet
facet normal -1.0 -1.1278959165307684e-32 -3.0531133177191785e-16
  outer loop
    vertex 8.513375005722041 1.9239427597003935 4.99776234678447
    vertex 8.513375005722045 5.163400303421393 0.793036910932868
    vertex 8.513375005722045 4.307802021401756 1.2137645148135998
  endloop
endfacet
facet normal -1.0 -1.1278959165307684e-32 -3.0531133177191785e-16
  outer loop
    vertex 8.513375005722041 1.9239427597003935 4.99776234678447
    vertex 8.513375005722045 4.307802021401756 1.2137645148135998
    vertex 8.513375005722043 2.9994895322527153 2.1132346665609067
  endloop
endfacet
facet normal -1.0 -1.1278959165307684e-32 -3.0531133177191785e-16
  outer loop
    vertex 8.513375005722041 1.9239427597003935 4.99776234678447
    vertex 8.513375005722043 2.9994895322527153 2.1132346665609067
    vertex 8.513375005722045 1.8751324503984201 3.2341938641089354
  endloop
endfacet
facet normal -1.0 -1.1278959165307684e-32 -3.0531133177191785e-16
  outer loop
    vertex 8.513375005722041 1.9239427597003935 4.99776234678447
    vertex 8.513375005722045 1.8751324503984201 3.2341938641089354
    vertex 8.513375005722034 0.9717065144616134 4.539778062900732
  endloop
endfacet
facet normal -1.0 -1.1278959165307684e-32 -3.0531133177191785e-16
  outer loop
    vertex 8.513375005722041 1.9239427597003935 4.99776234678447
    vertex 8.513375005722034 0.9717065144616134 4.539778062900732
    vertex 8.513375005722041 1.9239428154236349 12.698748831117687
  endloop
endfacet
facet normal -1.0 -1.1278959165307684e-32 -3.0531133177191785e-16
  outer loop
    vertex 8.513375005722041 1.9239428154236349 12.698748831117687
    vertex 8.513375005722034 0.9717065144616134 4.539778062900732
    vertex 8.513375005722041 0.5483913080167794 5.394099157158064
  endloop
endfacet
facet normal -1.0 -1.1278959165307684e-32 -3.0531133177191785e-16
  outer loop
    vertex 8.513375005722041 1.9239428154236349 12.698748831117687
    vertex 8.513375005722041 0.5483913080167794 5.394099157158064
    vertex 8.51337500572204 0.13309254165859022 6.595094699876064
  endloop
endfacet
facet normal -1.0 -1.1278959165307684e-32 -3.0531133177191785e-16
  outer loop
    vertex 8.513375005722041 1.9239428154236349 12.698748831117687
    vertex 8.51337500572204 0.13309254165859022 6.595094699876064
    vertex 8.513375005722041 -0.06175129336892351 7.52842006895091
  endloop
endfacet
facet normal -1.0 -1.1278959165307684e-32 -3.0531133177191785e-16
  outer loop
    vertex 8.513375005722041 1.9239428154236349 12.698748831117687
    vertex 8.513375005722041 -0.06175129336892351 7.52842006895091
    vertex 8.513375005722041 -0.16164691753325375 8.795260445550717
  endloop
endfacet
facet normal -1.0 -1.1278959165307684e-32 -3.0531133177191785e-16
  outer loop
    vertex 8.513375005722041 1.9239428154236349 12.698748831117687
    vertex 8.513375005722041 -0.16164691753325375 8.795260445550717
    vertex 8.513375005722041 -0.11549398028803506 9.747589308339943
  endloop
endfacet
facet normal -1.0 -1.1278959165307684e-32 -3.0531133177191785e-16
  outer loop
    vertex 8.513375005722041 1.9239428154236349 12.698748831117687
    vertex 8.513375005722041 -0.11549398028803506 9.747589308339943
    vertex 8.51337500572204 0.19012234336672015 11.305577393352578
  endloop
endfacet
facet normal -1.0 -1.1278959165307684e-32 -3.0531133177191785e-16
  outer loop
    vertex 8.513375005722041 1.9239428154236349 12.698748831117687
    vertex 8.51337500572204 0.19012234336672015 11.305577393352578
    vertex 8.513375005722041 0.7720832973704729 12.78275367299804
  endloop
endfacet
facet normal -1.0 -1.1278959165307684e-32 -3.0531133177191785e-16
  outer loop
    vertex 8.513375005722041 1.9239428154236349 12.698748831117687
    vertex 8.513375005722041 0.7720832973704729 12.78275367299804
    vertex 8.51337500572204 8.593192828641673 16.54924212154204
  endloop
endfacet
facet normal -1.0 -1.1278959165307684e-32 -3.0531133177191785e-16
  outer loop
    vertex 8.51337500572204 8.593192828641673 16.54924212154204
    vertex 8.513375005722041 0.7720832973704729 12.78275367299804
    vertex 8.513375005722041 10.04384648482692 17.482236551300236
  endloop
endfacet
facet normal -1.0 -1.1278959165307684e-32 -3.0531133177191785e-16
  outer loop
    vertex 8.513375005722041 10.04384648482692 17.482236551300236
    vertex 8.513375005722041 0.7720832973704729 12.78275367299804
    vertex 8.513375005722041 9.096372260558974 17.58878414670715
  endloop
endfacet
facet normal -1.0 -1.1278959165307684e-32 -3.0531133177191785e-16
  outer loop
    vertex 8.513375005722041 9.096372260558974 17.58878414670715
    vertex 8.513375005722041 0.7720832973704729 12.78275367299804
    vertex 8.513375005722033 1.6112513690380716 14.130539217358773
  endloop
endfacet
facet normal -1.0 -1.1278959165307684e-32 -3.0531133177191785e-16
  outer loop
    vertex 8.513375005722041 9.096372260558974 17.58878414670715
    vertex 8.513375005722033 1.6112513690380716 14.130539217358773
    vertex 8.513375005722041 7.825744958249359 17.5695541632729
  endloop
endfacet
facet normal -1.0 -1.1278959165307684e-32 -3.0531133177191785e-16
  outer loop
    vertex 8.513375005722041 7.825744958249359 17.5695541632729
    vertex 8.513375005722033 1.6112513690380716 14.130539217358773
    vertex 8.513375005722041 6.881928514858183 17.434383906336013
  endloop
endfacet
facet normal -1.0 -1.1278959165307684e-32 -3.0531133177191785e-16
  outer loop
    vertex 8.513375005722041 6.881928514858183 17.434383906336013
    vertex 8.513375005722033 1.6112513690380716 14.130539217358773
    vertex 8.513375005722041 2.2270574495328455 14.858442386977911
  endloop
endfacet
facet normal -1.0 -1.1278959165307684e-32 -3.0531133177191785e-16
  outer loop
    vertex 8.513375005722041 6.881928514858183 17.434383906336013
    vertex 8.513375005722041 2.2270574495328455 14.858442386977911
    vertex 8.513375005722041 5.3594251563921045 16.98414916552473
  endloop
endfacet
facet normal -1.0 -1.1278959165307684e-32 -3.0531133177191785e-16
  outer loop
    vertex 8.513375005722041 5.3594251563921045 16.98414916552473
    vertex 8.513375005722041 2.2270574495328455 14.858442386977911
    vertex 8.513375005722041 2.6800287541689083 15.304610287065938
  endloop
endfacet
facet normal -1.0 -1.1278959165307684e-32 -3.0531133177191785e-16
  outer loop
    vertex 8.513375005722041 5.3594251563921045 16.98414916552473
    vertex 8.513375005722041 2.6800287541689083 15.304610287065938
    vertex 8.51337500572204 3.9432677578189947 16.26635630240427
  endloop
endfacet
facet normal -1.0 -1.1278959165307684e-32 -3.0531133177191785e-16
  outer loop
    vertex 8.513375005722041 15.262442730413225 4.997762443299961
    vertex 8.513375005722041 16.950256286681395 6.238751929651408
    vertex 8.513375005722041 16.616938239080085 5.345466096406499
  endloop
endfacet
facet normal -1.0 -1.1278959165307684e-32 -3.0531133177191785e-16
  outer loop
    vertex 8.513375005722041 16.950256286681395 6.238751929651408
    vertex 8.513375005722041 15.262442730413225 4.997762443299961
    vertex 8.513375005722041 15.262442786136468 12.69874892763318
  endloop
endfacet
facet normal -1.0 -1.1278959165307684e-32 -3.0531133177191785e-16
  outer loop
    vertex 8.513375005722041 16.950256286681395 6.238751929651408
    vertex 8.513375005722041 15.262442786136468 12.69874892763318
    vertex 8.513375005722041 17.284113057662054 7.790933682363847
  endloop
endfacet
facet normal -1.0 -1.1278959165307684e-32 -3.0531133177191785e-16
  outer loop
    vertex 8.513375005722041 17.284113057662054 7.790933682363847
    vertex 8.513375005722041 15.262442786136468 12.69874892763318
    vertex 8.513375005722041 17.332158166371784 9.377886685853621
  endloop
endfacet
facet normal -1.0 -1.1278959165307684e-32 -3.0531133177191785e-16
  outer loop
    vertex 8.513375005722041 17.332158166371784 9.377886685853621
    vertex 8.513375005722041 15.262442786136468 12.69874892763318
    vertex 8.513375005722041 17.092812069569952 10.947422348882363
  endloop
endfacet
facet normal -1.0 -1.1278959165307684e-32 -3.0531133177191785e-16
  outer loop
    vertex 8.513375005722041 17.092812069569952 10.947422348882363
    vertex 8.513375005722041 15.262442786136468 12.69874892763318
    vertex 8.51337500572204 16.814143048098046 11.859235654117484
  endloop
endfacet
facet normal -1.0 -1.1278959165307684e-32 -3.0531133177191785e-16
  outer loop
    vertex 8.51337500572204 16.814143048098046 11.859235654117484
    vertex 8.513375005722041 15.262442786136468 12.69874892763318
    vertex 8.513375005722041 16.135186933133202 13.294417564472386
  endloop
endfacet
facet normal -1.0 -1.1278959165307684e-32 -3.0531133177191785e-16
  outer loop
    vertex 8.513375005722041 16.135186933133202 13.294417564472386
    vertex 8.513375005722041 15.262442786136468 12.69874892763318
    vertex 8.51337500572204 8.593192828641673 16.54924212154204
  endloop
endfacet
facet normal -1.0 -1.1278959165307684e-32 -3.0531133177191785e-16
  outer loop
    vertex 8.513375005722041 16.135186933133202 13.294417564472386
    vertex 8.51337500572204 8.593192828641673 16.54924212154204
    vertex 8.513375005722034 15.412088623100642 14.339402080222225
  endloop
endfacet
facet normal -1.0 -1.1278959165307684e-32 -3.0531133177191785e-16
  outer loop
    vertex 8.513375005722034 15.412088623100642 14.339402080222225
    vertex 8.51337500572204 8.593192828641673 16.54924212154204
    vertex 8.513375005722041 14.995592234419197 14.819797366958541
  endloop
endfacet
facet normal -1.0 -1.1278959165307684e-32 -3.0531133177191785e-16
  outer loop
    vertex 8.513375005722041 14.995592234419197 14.819797366958541
    vertex 8.51337500572204 8.593192828641673 16.54924212154204
    vertex 8.513375005722041 14.308271352885816 15.480592794623478
  endloop
endfacet
facet normal -1.0 -1.1278959165307684e-32 -3.0531133177191785e-16
  outer loop
    vertex 8.513375005722041 14.308271352885816 15.480592794623478
    vertex 8.51337500572204 8.593192828641673 16.54924212154204
    vertex 8.51337500572204 13.016507800398609 16.40367161937122
  endloop
endfacet
facet normal -1.0 -1.1278959165307684e-32 -3.0531133177191785e-16
  outer loop
    vertex 8.51337500572204 13.016507800398609 16.40367161937122
    vertex 8.51337500572204 8.593192828641673 16.54924212154204
    vertex 8.513375005722041 11.579277537002183 17.078281316315728
  endloop
endfacet
facet normal -1.0 -1.1278959165307684e-32 -3.0531133177191785e-16
  outer loop
    vertex 8.513375005722041 11.579277537002183 17.078281316315728
    vertex 8.51337500572204 8.593192828641673 16.54924212154204
    vertex 8.513375005722041 10.04384648482692 17.482236551300236
  endloop
endfacet
facet normal -2.9277784347453903e-16 -0.2835802802735475 0.9589484994721961
  outer loop
    vertex 14.913375005722042 6.881928514858183 17.434383906336013
    vertex 8.513375005722041 5.3594251563921045 16.98414916552473
    vertex 14.913375005722042 5.3594251563921045 16.984149165524734
  endloop
endfacet
facet normal -2.9277784347453903e-16 -0.2835802802735475 0.9589484994721961
  outer loop
    vertex 8.513375005722041 5.3594251563921045 16.98414916552473
    vertex 14.913375005722042 6.881928514858183 17.434383906336013
    vertex 8.513375005722041 6.881928514858183 17.434383906336013
  endloop
endfacet
facet normal -2.7232745314018843e-16 -0.4521016698525105 0.8919664119890232
  outer loop
    vertex 14.913375005722042 5.3594251563921045 16.984149165524734
    vertex 8.51337500572204 3.9432677578189947 16.26635630240427
    vertex 14.913375005722042 3.9432677578189947 16.26635630240427
  endloop
endfacet
facet normal -2.7232745314018843e-16 -0.4521016698525105 0.8919664119890232
  outer loop
    vertex 8.51337500572204 3.9432677578189947 16.26635630240427
    vertex 14.913375005722042 5.3594251563921045 16.984149165524734
    vertex 8.513375005722041 5.3594251563921045 16.98414916552473
  endloop
endfacet
facet normal -2.4292121350572956e-16 -0.6057555299566922 0.7956508266362117
  outer loop
    vertex 14.913375005722042 3.9432677578189947 16.26635630240427
    vertex 8.513375005722041 2.6800287541689083 15.304610287065938
    vertex 14.913375005722042 2.6800287541689083 15.304610287065941
  endloop
endfacet
facet normal -2.4292121350572956e-16 -0.6057555299566922 0.7956508266362117
  outer loop
    vertex 8.513375005722041 2.6800287541689083 15.304610287065938
    vertex 14.913375005722042 3.9432677578189947 16.26635630240427
    vertex 8.51337500572204 3.9432677578189947 16.26635630240427
  endloop
endfacet
facet normal -2.175150171070544e-16 -0.7017363164528834 0.7124367636296844
  outer loop
    vertex 14.913375005722042 2.227057449532847 14.858442386977913
    vertex 8.513375005722041 2.6800287541689083 15.304610287065938
    vertex 8.513375005722041 2.2270574495328455 14.858442386977911
  endloop
endfacet
facet normal -2.175150171070544e-16 -0.7017363164528834 0.7124367636296844
  outer loop
    vertex 8.513375005722041 2.6800287541689083 15.304610287065938
    vertex 14.913375005722042 2.227057449532847 14.858442386977913
    vertex 14.913375005722042 2.6800287541689083 15.304610287065941
  endloop
endfacet
facet normal -1.9719258745022247e-16 -0.7634441992757619 0.6458737915353051
  outer loop
    vertex 14.913375005722042 2.227057449532847 14.858442386977913
    vertex 8.513375005722033 1.6112513690380716 14.130539217358773
    vertex 14.913375005722033 1.6112513690380716 14.130539217358777
  endloop
endfacet
facet normal -1.9719258745022247e-16 -0.7634441992757619 0.6458737915353051
  outer loop
    vertex 8.513375005722033 1.6112513690380716 14.130539217358773
    vertex 14.913375005722042 2.227057449532847 14.858442386977913
    vertex 8.513375005722041 2.2270574495328455 14.858442386977911
  endloop
endfacet
facet normal -1.613722308139071e-16 -0.8489023220075993 0.5285497589537868
  outer loop
    vertex 14.913375005722042 0.7720832973704743 12.782753672998044
    vertex 8.513375005722033 1.6112513690380716 14.130539217358773
    vertex 8.513375005722041 0.7720832973704729 12.78275367299804
  endloop
endfacet
facet normal -1.613722308139071e-16 -0.8489023220075993 0.5285497589537868
  outer loop
    vertex 8.513375005722033 1.6112513690380716 14.130539217358773
    vertex 14.913375005722042 0.7720832973704743 12.782753672998044
    vertex 14.913375005722033 1.6112513690380716 14.130539217358777
  endloop
endfacet
facet normal -1.119112511344909e-16 -0.9303991510492194 0.3665479773875337
  outer loop
    vertex 14.913375005722042 0.7720832973704743 12.782753672998044
    vertex 8.51337500572204 0.19012234336672015 11.305577393352578
    vertex 14.913375005722042 0.19012234336672015 11.30557739335258
  endloop
endfacet
facet normal -1.119112511344909e-16 -0.9303991510492194 0.3665479773875337
  outer loop
    vertex 8.51337500572204 0.19012234336672015 11.305577393352578
    vertex 14.913375005722042 0.7720832973704743 12.782753672998044
    vertex 8.513375005722041 0.7720832973704729 12.78275367299804
  endloop
endfacet
facet normal -5.877010409285969e-17 -0.9812984686892259 0.19249237737682043
  outer loop
    vertex 8.51337500572204 0.19012234336672015 11.305577393352578
    vertex 14.913375005722042 -0.11549398028803506 9.747589308339943
    vertex 14.913375005722042 0.19012234336672015 11.30557739335258
  endloop
endfacet
facet normal -5.877010409285969e-17 -0.9812984686892259 0.19249237737682043
  outer loop
    vertex 14.913375005722042 -0.11549398028803506 9.747589308339943
    vertex 8.51337500572204 0.19012234336672015 11.305577393352578
    vertex 8.513375005722041 -0.11549398028803506 9.747589308339943
  endloop
endfacet
facet normal -1.4779029281954687e-17 -0.9988277220185413 0.04840642237607926
  outer loop
    vertex 8.513375005722041 -0.11549398028803506 9.747589308339943
    vertex 14.913375005722042 -0.16164691753325375 8.795260445550719
    vertex 14.913375005722042 -0.11549398028803506 9.747589308339943
  endloop
endfacet
facet normal -1.4779029281954687e-17 -0.9988277220185413 0.04840642237607926
  outer loop
    vertex 14.913375005722042 -0.16164691753325375 8.795260445550719
    vertex 8.513375005722041 -0.11549398028803506 9.747589308339943
    vertex 8.513375005722041 -0.16164691753325375 8.795260445550717
  endloop
endfacet
facet normal 2.4000564445088056e-17 -0.9969054353171909 -0.07861013315751254
  outer loop
    vertex 8.513375005722041 -0.16164691753325375 8.795260445550717
    vertex 14.913375005722042 -0.06175129336892351 7.528420068950913
    vertex 14.913375005722042 -0.16164691753325375 8.795260445550719
  endloop
endfacet
facet normal 2.4000564445088056e-17 -0.9969054353171909 -0.07861013315751254
  outer loop
    vertex 14.913375005722042 -0.06175129336892351 7.528420068950913
    vertex 8.513375005722041 -0.16164691753325375 8.795260445550717
    vertex 8.513375005722041 -0.06175129336892351 7.52842006895091
  endloop
endfacet
facet normal 6.239262119262883e-17 -0.9788963503816486 -0.204357371311848
  outer loop
    vertex 8.513375005722041 -0.06175129336892351 7.52842006895091
    vertex 14.913375005722042 0.13309254165859022 6.595094699876068
    vertex 14.913375005722042 -0.06175129336892351 7.528420068950913
  endloop
endfacet
facet normal 6.239262119262883e-17 -0.9788963503816486 -0.204357371311848
  outer loop
    vertex 14.913375005722042 0.13309254165859022 6.595094699876068
    vertex 8.513375005722041 -0.06175129336892351 7.52842006895091
    vertex 8.51337500572204 0.13309254165859022 6.595094699876064
  endloop
endfacet
facet normal 9.977820216076791e-17 -0.9450907342291822 -0.3268080538697682
  outer loop
    vertex 8.51337500572204 0.13309254165859022 6.595094699876064
    vertex 14.913375005722042 0.5483913080167794 5.394099157158067
    vertex 14.913375005722042 0.13309254165859022 6.595094699876068
  endloop
endfacet
facet normal 9.977820216076791e-17 -0.9450907342291822 -0.3268080538697682
  outer loop
    vertex 14.913375005722042 0.5483913080167794 5.394099157158067
    vertex 8.51337500572204 0.13309254165859022 6.595094699876064
    vertex 8.513375005722041 0.5483913080167794 5.394099157158064
  endloop
endfacet
facet normal 1.3555341031063292e-16 -0.8960346096269182 -0.4439842095736474
  outer loop
    vertex 8.513375005722041 0.5483913080167794 5.394099157158064
    vertex 14.913375005722036 0.9717065144616134 4.5397780629007345
    vertex 14.913375005722042 0.5483913080167794 5.394099157158067
  endloop
endfacet
facet normal 1.3555341031063292e-16 -0.8960346096269182 -0.4439842095736474
  outer loop
    vertex 14.913375005722036 0.9717065144616134 4.5397780629007345
    vertex 8.513375005722041 0.5483913080167794 5.394099157158064
    vertex 8.513375005722034 0.9717065144616134 4.539778062900732
  endloop
endfacet
facet normal 1.7372904817168436e-16 -0.8223218830586758 -0.5690226011704926
  outer loop
    vertex 14.913375005722036 0.9717065144616134 4.5397780629007345
    vertex 8.513375005722045 1.8751324503984201 3.2341938641089354
    vertex 14.913375005722044 1.8751324503984201 3.2341938641089376
  endloop
endfacet
facet normal 1.7372904817168436e-16 -0.8223218830586758 -0.5690226011704926
  outer loop
    vertex 8.513375005722045 1.8751324503984201 3.2341938641089354
    vertex 14.913375005722036 0.9717065144616134 4.5397780629007345
    vertex 8.513375005722034 0.9717065144616134 4.539778062900732
  endloop
endfacet
facet normal 2.1621417290136363e-16 -0.7060358931759717 -0.7081760498260359
  outer loop
    vertex 8.513375005722045 1.8751324503984201 3.2341938641089354
    vertex 14.913375005722044 2.9994895322527153 2.113234666560908
    vertex 14.913375005722044 1.8751324503984201 3.2341938641089376
  endloop
endfacet
facet normal 2.1621417290136363e-16 -0.7060358931759717 -0.7081760498260359
  outer loop
    vertex 14.913375005722044 2.9994895322527153 2.113234666560908
    vertex 8.513375005722045 1.8751324503984201 3.2341938641089354
    vertex 8.513375005722043 2.9994895322527153 2.1132346665609067
  endloop
endfacet
facet normal 2.515888601216514e-16 -0.5665310962869679 -0.8240403612323164
  outer loop
    vertex 8.513375005722043 2.9994895322527153 2.1132346665609067
    vertex 14.913375005722044 4.307802021401756 1.2137645148136014
    vertex 14.913375005722044 2.9994895322527153 2.113234666560908
  endloop
endfacet
facet normal 2.515888601216514e-16 -0.5665310962869679 -0.8240403612323164
  outer loop
    vertex 14.913375005722044 4.307802021401756 1.2137645148136014
    vertex 8.513375005722043 2.9994895322527153 2.1132346665609067
    vertex 8.513375005722045 4.307802021401756 1.2137645148135998
  endloop
endfacet
facet normal 2.739785232750097e-16 -0.44127030206160694 -0.8973742366028001
  outer loop
    vertex 8.513375005722045 4.307802021401756 1.2137645148135998
    vertex 14.913375005722044 5.163400303421393 0.7930369109328694
    vertex 14.913375005722044 4.307802021401756 1.2137645148136014
  endloop
endfacet
facet normal 2.739785232750097e-16 -0.44127030206160694 -0.8973742366028001
  outer loop
    vertex 14.913375005722044 5.163400303421393 0.7930369109328694
    vertex 8.513375005722045 4.307802021401756 1.2137645148135998
    vertex 8.513375005722045 5.163400303421393 0.793036910932868
  endloop
endfacet
facet normal 2.905959341045229e-16 -0.306713165483674 -0.9518019931261881
  outer loop
    vertex 8.513375005722045 5.163400303421393 0.793036910932868
    vertex 14.913375005722044 6.6745575180513494 0.30607447947135336
    vertex 14.913375005722044 5.163400303421393 0.7930369109328694
  endloop
endfacet
facet normal 2.905959341045229e-16 -0.306713165483674 -0.9518019931261881
  outer loop
    vertex 14.913375005722044 6.6745575180513494 0.30607447947135336
    vertex 8.513375005722045 5.163400303421393 0.793036910932868
    vertex 8.513375005722045 6.6745575180513494 0.3060744794713505
  endloop
endfacet
facet normal 3.019600075701711e-16 -0.1477599345752555 -0.9890232564173181
  outer loop
    vertex 8.513375005722045 7.9313813533590585 0.11830517630005151
    vertex 14.913375005722044 6.6745575180513494 0.30607447947135336
    vertex 8.513375005722045 6.6745575180513494 0.3060744794713505
  endloop
endfacet
facet normal 3.019600075701711e-16 -0.1477599345752555 -0.9890232564173181
  outer loop
    vertex 14.913375005722044 6.6745575180513494 0.30607447947135336
    vertex 8.513375005722045 7.9313813533590585 0.11830517630005151
    vertex 14.913375005722044 7.9313813533590585 0.11830517630005433
  endloop
endfacet
facet normal 3.050750492930808e-16 -0.03933464664242947 -0.9992260933209836
  outer loop
    vertex 8.513375005722045 8.566695079931069 0.09329598057464915
    vertex 14.913375005722044 7.9313813533590585 0.11830517630005433
    vertex 8.513375005722045 7.9313813533590585 0.11830517630005151
  endloop
endfacet
facet normal 3.050750492930808e-16 -0.03933464664242947 -0.9992260933209836
  outer loop
    vertex 14.913375005722044 7.9313813533590585 0.11830517630005433
    vertex 8.513375005722045 8.566695079931069 0.09329598057464915
    vertex 14.913375005722044 8.566695079931069 0.09329598057465055
  endloop
endfacet
facet normal 3.0490729936352775e-16 0.0514289797881671 -0.9986766543971819
  outer loop
    vertex 8.513375005722045 8.566695079931069 0.09329598057464915
    vertex 14.913375005722044 9.518879934053835 0.14233076615981838
    vertex 14.913375005722044 8.566695079931069 0.09329598057465055
  endloop
endfacet
facet normal 3.0490729936352775e-16 0.0514289797881671 -0.9986766543971819
  outer loop
    vertex 14.913375005722044 9.518879934053835 0.14233076615981838
    vertex 8.513375005722045 8.566695079931069 0.09329598057464915
    vertex 8.513375005722045 9.518879934053835 0.14233076615981696
  endloop
endfacet
facet normal 2.99422288826221e-16 0.19546162011193186 -0.980711351552137
  outer loop
    vertex 8.513375005722045 11.075935600349066 0.45266124480356246
    vertex 14.913375005722044 9.518879934053835 0.14233076615981838
    vertex 8.513375005722045 9.518879934053835 0.14233076615981696
  endloop
endfacet
facet normal 2.99422288826221e-16 0.19546162011193186 -0.980711351552137
  outer loop
    vertex 14.913375005722044 9.518879934053835 0.14233076615981838
    vertex 8.513375005722045 11.075935600349066 0.45266124480356246
    vertex 14.913375005722044 11.075935600349066 0.4526612448035639
  endloop
endfacet
facet normal 2.837214086303347e-16 0.3693621095906817 -0.9292855492251675
  outer loop
    vertex 8.513375005722045 12.551343947759944 1.0390901849304883
    vertex 14.913375005722044 11.075935600349066 0.4526612448035639
    vertex 8.513375005722045 11.075935600349066 0.45266124480356246
  endloop
endfacet
facet normal 2.837214086303347e-16 0.3693621095906817 -0.9292855492251675
  outer loop
    vertex 14.913375005722044 11.075935600349066 0.4526612448035639
    vertex 8.513375005722045 12.551343947759944 1.0390901849304883
    vertex 14.913375005722044 12.551343947759944 1.0390901849304897
  endloop
endfacet
facet normal 2.586899205459355e-16 0.5311165300047932 -0.8472987852910374
  outer loop
    vertex 8.513375005722045 12.551343947759944 1.0390901849304883
    vertex 14.913375005722044 13.896583473750196 1.8823333967377855
    vertex 14.913375005722044 12.551343947759944 1.0390901849304897
  endloop
endfacet
facet normal 2.586899205459355e-16 0.5311165300047932 -0.8472987852910374
  outer loop
    vertex 14.913375005722044 13.896583473750196 1.8823333967377855
    vertex 8.513375005722045 12.551343947759944 1.0390901849304883
    vertex 8.513375005722045 13.896583473750196 1.8823333967377842
  endloop
endfacet
facet normal 2.3249020156391534e-16 0.6481817543719807 -0.7614856619131193
  outer loop
    vertex 8.513375005722045 14.622619382896241 2.5003400813876553
    vertex 14.913375005722044 13.896583473750196 1.8823333967377855
    vertex 8.513375005722045 13.896583473750196 1.8823333967377842
  endloop
endfacet
facet normal 2.3249020156391534e-16 0.6481817543719807 -0.7614856619131193
  outer loop
    vertex 14.913375005722044 13.896583473750196 1.8823333967377855
    vertex 8.513375005722045 14.622619382896241 2.5003400813876553
    vertex 14.913375005722044 14.622619382896241 2.500340081387657
  endloop
endfacet
facet normal 2.055262330012645e-16 0.7394883476579921 -0.6731693573522585
  outer loop
    vertex 8.513375005722045 15.478064715112032 3.440061784883097
    vertex 14.913375005722044 14.622619382896241 2.500340081387657
    vertex 8.513375005722045 14.622619382896241 2.5003400813876553
  endloop
endfacet
facet normal 2.055262330012645e-16 0.7394883476579921 -0.6731693573522585
  outer loop
    vertex 14.913375005722044 14.622619382896241 2.500340081387657
    vertex 8.513375005722045 15.478064715112032 3.440061784883097
    vertex 14.913375005722044 15.478064715112032 3.4400617848830994
  endloop
endfacet
facet normal 1.75245524017919e-16 0.8188626005464639 -0.5739895830294155
  outer loop
    vertex 8.513375005722034 16.025332859161903 4.220803158738222
    vertex 14.913375005722044 15.478064715112032 3.4400617848830994
    vertex 8.513375005722045 15.478064715112032 3.440061784883097
  endloop
endfacet
facet normal 1.75245524017919e-16 0.8188626005464639 -0.5739895830294155
  outer loop
    vertex 14.913375005722044 15.478064715112032 3.4400617848830994
    vertex 8.513375005722034 16.025332859161903 4.220803158738222
    vertex 14.913375005722036 16.025332859161903 4.220803158738223
  endloop
endfacet
facet normal 1.4213698830653812e-16 0.8850227900881155 -0.46554770005301016
  outer loop
    vertex 8.513375005722034 16.025332859161903 4.220803158738222
    vertex 14.913375005722042 16.616938239080085 5.3454660964065015
    vertex 14.913375005722036 16.025332859161903 4.220803158738223
  endloop
endfacet
facet normal 1.4213698830653812e-16 0.8850227900881155 -0.46554770005301016
  outer loop
    vertex 14.913375005722042 16.616938239080085 5.3454660964065015
    vertex 8.513375005722034 16.025332859161903 4.220803158738222
    vertex 8.513375005722041 16.616938239080085 5.345466096406499
  endloop
endfacet
facet normal 1.0673463248473713e-16 0.9369017552875903 -0.349592764426028
  outer loop
    vertex 8.513375005722041 16.950256286681395 6.238751929651408
    vertex 14.913375005722042 16.616938239080085 5.3454660964065015
    vertex 8.513375005722041 16.616938239080085 5.345466096406499
  endloop
endfacet
facet normal 1.0673463248473713e-16 0.9369017552875903 -0.349592764426028
  outer loop
    vertex 14.913375005722042 16.616938239080085 5.3454660964065015
    vertex 8.513375005722041 16.950256286681395 6.238751929651408
    vertex 14.913375005722042 16.95025628668139 6.23875192965141
  endloop
endfacet
facet normal 6.420074581320223e-17 0.9776412881617786 -0.21027960357908754
  outer loop
    vertex 8.513375005722041 16.950256286681395 6.238751929651408
    vertex 14.913375005722042 17.28411305766205 7.790933682363845
    vertex 14.913375005722042 16.95025628668139 6.23875192965141
  endloop
endfacet
facet normal 6.420074581320223e-17 0.9776412881617786 -0.21027960357908754
  outer loop
    vertex 14.913375005722042 17.28411305766205 7.790933682363845
    vertex 8.513375005722041 16.950256286681395 6.238751929651408
    vertex 8.513375005722041 17.284113057662054 7.790933682363847
  endloop
endfacet
facet normal 9.239087854010038e-18 0.9995420249591254 -0.030261201902955056
  outer loop
    vertex 8.513375005722041 17.284113057662054 7.790933682363847
    vertex 14.913375005722042 17.33215816637178 9.377886685853621
    vertex 14.913375005722042 17.28411305766205 7.790933682363845
  endloop
endfacet
facet normal 9.239087854010038e-18 0.9995420249591254 -0.030261201902955056
  outer loop
    vertex 14.913375005722042 17.33215816637178 9.377886685853621
    vertex 8.513375005722041 17.284113057662054 7.790933682363847
    vertex 8.513375005722041 17.332158166371784 9.377886685853621
  endloop
endfacet
facet normal -4.602631608445809e-17 0.9885716021490921 0.1507520727034192
  outer loop
    vertex 8.513375005722041 17.332158166371784 9.377886685853621
    vertex 14.913375005722042 17.09281206956995 10.947422348882364
    vertex 14.913375005722042 17.33215816637178 9.377886685853621
  endloop
endfacet
facet normal -4.602631608445809e-17 0.9885716021490921 0.1507520727034192
  outer loop
    vertex 14.913375005722042 17.09281206956995 10.947422348882364
    vertex 8.513375005722041 17.332158166371784 9.377886685853621
    vertex 8.513375005722041 17.092812069569952 10.947422348882363
  endloop
endfacet
facet normal -8.923502699475078e-17 0.9563341585568433 0.2922755158705125
  outer loop
    vertex 8.513375005722041 17.092812069569952 10.947422348882363
    vertex 14.913375005722042 16.814143048098046 11.859235654117484
    vertex 14.913375005722042 17.09281206956995 10.947422348882364
  endloop
endfacet
facet normal -8.923502699475078e-17 0.9563341585568433 0.2922755158705125
  outer loop
    vertex 14.913375005722042 16.814143048098046 11.859235654117484
    vertex 8.513375005722041 17.092812069569952 10.947422348882363
    vertex 8.51337500572204 16.814143048098046 11.859235654117484
  endloop
endfacet
facet normal -1.3056344179545187e-16 0.9039489694704862 0.4276403402314219
  outer loop
    vertex 8.51337500572204 16.814143048098046 11.859235654117484
    vertex 14.913375005722042 16.135186933133202 13.294417564472388
    vertex 14.913375005722042 16.814143048098046 11.859235654117484
  endloop
endfacet
facet normal -1.3056344179545187e-16 0.9039489694704862 0.4276403402314219
  outer loop
    vertex 14.913375005722042 16.135186933133202 13.294417564472388
    vertex 8.51337500572204 16.814143048098046 11.859235654117484
    vertex 8.513375005722041 16.135186933133202 13.294417564472386
  endloop
endfacet
facet normal -1.7372900008511952e-16 0.822321992044098 0.5690224436703939
  outer loop
    vertex 8.513375005722041 16.135186933133202 13.294417564472386
    vertex 14.913375005722038 15.412088623100642 14.339402080222229
    vertex 14.913375005722042 16.135186933133202 13.294417564472388
  endloop
endfacet
facet normal -1.7372900008511952e-16 0.822321992044098 0.5690224436703939
  outer loop
    vertex 14.913375005722038 15.412088623100642 14.339402080222229
    vertex 8.513375005722041 16.135186933133202 13.294417564472386
    vertex 8.513375005722034 15.412088623100642 14.339402080222225
  endloop
endfacet
facet normal -1.9999988902590888e-16 0.7555693438412614 0.6550686732299796
  outer loop
    vertex 14.913375005722038 15.412088623100642 14.339402080222229
    vertex 8.513375005722041 14.995592234419197 14.819797366958541
    vertex 14.913375005722042 14.995592234419197 14.819797366958543
  endloop
endfacet
facet normal -1.9999988902590888e-16 0.7555693438412614 0.6550686732299796
  outer loop
    vertex 8.513375005722041 14.995592234419197 14.819797366958541
    vertex 14.913375005722038 15.412088623100642 14.339402080222229
    vertex 8.513375005722034 15.412088623100642 14.339402080222225
  endloop
endfacet
facet normal -2.200929069352343e-16 0.6930596480386156 0.7208802426621153
  outer loop
    vertex 8.513375005722041 14.995592234419197 14.819797366958541
    vertex 14.913375005722042 14.308271352885816 15.480592794623481
    vertex 14.913375005722042 14.995592234419197 14.819797366958543
  endloop
endfacet
facet normal -2.200929069352343e-16 0.6930596480386156 0.7208802426621153
  outer loop
    vertex 14.913375005722042 14.308271352885816 15.480592794623481
    vertex 8.513375005722041 14.995592234419197 14.819797366958541
    vertex 8.513375005722041 14.308271352885816 15.480592794623478
  endloop
endfacet
facet normal -2.4840652110061273e-16 0.5814010755108419 0.8136171024473591
  outer loop
    vertex 8.513375005722041 14.308271352885816 15.480592794623478
    vertex 14.913375005722042 13.016507800398609 16.40367161937122
    vertex 14.913375005722042 14.308271352885816 15.480592794623481
  endloop
endfacet
facet normal -2.4840652110061273e-16 0.5814010755108419 0.8136171024473591
  outer loop
    vertex 14.913375005722042 13.016507800398609 16.40367161937122
    vertex 8.513375005722041 14.308271352885816 15.480592794623478
    vertex 8.51337500572204 13.016507800398609 16.40367161937122
  endloop
endfacet
facet normal -2.763797323312912e-16 0.4249027034508564 0.9052390251199699
  outer loop
    vertex 8.51337500572204 13.016507800398609 16.40367161937122
    vertex 14.913375005722042 11.57927753700218 17.07828131631573
    vertex 14.913375005722042 13.016507800398609 16.40367161937122
  endloop
endfacet
facet normal -2.763797323312912e-16 0.4249027034508564 0.9052390251199699
  outer loop
    vertex 14.913375005722042 11.57927753700218 17.07828131631573
    vertex 8.51337500572204 13.016507800398609 16.40367161937122
    vertex 8.513375005722041 11.579277537002183 17.078281316315728
  endloop
endfacet
facet normal -2.952638105941946e-16 0.25443111311878563 0.9670908999040038
  outer loop
    vertex 14.913375005722042 11.57927753700218 17.07828131631573
    vertex 8.513375005722041 10.04384648482692 17.482236551300236
    vertex 14.913375005722042 10.043846484826918 17.48223655130024
  endloop
endfacet
facet normal -2.952638105941946e-16 0.25443111311878563 0.9670908999040038
  outer loop
    vertex 8.513375005722041 10.04384648482692 17.482236551300236
    vertex 14.913375005722042 11.57927753700218 17.07828131631573
    vertex 8.513375005722041 11.579277537002183 17.078281316315728
  endloop
endfacet
facet normal -3.0339897001451667e-16 0.1117499731343125 0.9937363551287034
  outer loop
    vertex 14.913375005722042 10.043846484826918 17.48223655130024
    vertex 8.513375005722041 9.096372260558974 17.58878414670715
    vertex 14.913375005722042 9.096372260558972 17.588784146707155
  endloop
endfacet
facet normal -3.0339897001451667e-16 0.1117499731343125 0.9937363551287034
  outer loop
    vertex 8.513375005722041 9.096372260558974 17.58878414670715
    vertex 14.913375005722042 10.043846484826918 17.48223655130024
    vertex 8.513375005722041 10.04384648482692 17.482236551300236
  endloop
endfacet
facet normal -3.052763727087924e-16 -0.01513251093261375 0.9998854970009687
  outer loop
    vertex 14.913375005722042 9.096372260558972 17.588784146707155
    vertex 8.513375005722041 7.825744958249359 17.5695541632729
    vertex 14.913375005722042 7.8257449582493575 17.569554163272905
  endloop
endfacet
facet normal -3.052763727087924e-16 -0.01513251093261375 0.9998854970009687
  outer loop
    vertex 8.513375005722041 7.825744958249359 17.5695541632729
    vertex 14.913375005722042 9.096372260558972 17.588784146707155
    vertex 8.513375005722041 9.096372260558974 17.58878414670715
  endloop
endfacet
facet normal -3.022275668797147e-16 -0.1417701343898725 0.9898996055131437
  outer loop
    vertex 14.913375005722042 7.8257449582493575 17.569554163272905
    vertex 8.513375005722041 6.881928514858183 17.434383906336013
    vertex 14.913375005722042 6.881928514858183 17.434383906336013
  endloop
endfacet
facet normal -3.022275668797147e-16 -0.1417701343898725 0.9898996055131437
  outer loop
    vertex 8.513375005722041 6.881928514858183 17.434383906336013
    vertex 14.913375005722042 7.8257449582493575 17.569554163272905
    vertex 8.513375005722041 7.825744958249359 17.5695541632729
  endloop
endfacet
facet normal 2.6440736937774043e-16 0.5000000000000001 -0.8660254037844386
  outer loop
    vertex 8.51337500572204 8.593192828641673 16.54924212154204
    vertex 14.913375005722042 1.9239428154236349 12.698748831117689
    vertex 8.513375005722041 1.9239428154236349 12.698748831117687
  endloop
endfacet
facet normal 2.6440736937774043e-16 0.5000000000000001 -0.8660254037844386
  outer loop
    vertex 14.913375005722042 1.9239428154236349 12.698748831117689
    vertex 8.51337500572204 8.593192828641673 16.54924212154204
    vertex 14.913375005722042 8.593192828641673 16.54924212154204
  endloop
endfacet
facet normal 2.6440737048233527e-16 -0.49999999373356346 -0.8660254074023676
  outer loop
    vertex 8.51337500572204 8.593192828641673 16.54924212154204
    vertex 14.913375005722042 15.262442786136463 12.698748927633181
    vertex 14.913375005722042 8.593192828641673 16.54924212154204
  endloop
endfacet
facet normal 2.6440737048233527e-16 -0.49999999373356346 -0.8660254074023676
  outer loop
    vertex 14.913375005722042 15.262442786136463 12.698748927633181
    vertex 8.51337500572204 8.593192828641673 16.54924212154204
    vertex 8.513375005722041 15.262442786136468 12.69874892763318
  endloop
endfacet
facet normal -2.2091890558568562e-24 -1.0 7.235857005265821e-09
  outer loop
    vertex 8.513375005722041 15.262442786136468 12.69874892763318
    vertex 14.913375005722042 15.262442730413225 4.997762443299962
    vertex 14.913375005722042 15.262442786136463 12.698748927633181
  endloop
endfacet
facet normal -2.2091890558568562e-24 -1.0 7.235857005265821e-09
  outer loop
    vertex 14.913375005722042 15.262442730413225 4.997762443299962
    vertex 8.513375005722041 15.262442786136468 12.69874892763318
    vertex 8.513375005722041 15.262442730413225 4.997762443299961
  endloop
endfacet
facet normal -2.644073693777405e-16 -0.49999999999999917 0.866025403784439
  outer loop
    vertex 14.913375005722042 15.262442730413225 4.997762443299962
    vertex 8.513375005722045 8.593192717195182 1.1472691528756165
    vertex 14.913375005722044 8.593192717195182 1.1472691528756178
  endloop
endfacet
facet normal -2.644073693777405e-16 -0.49999999999999917 0.866025403784439
  outer loop
    vertex 8.513375005722045 8.593192717195182 1.1472691528756165
    vertex 14.913375005722042 15.262442730413225 4.997762443299962
    vertex 8.513375005722041 15.262442730413225 4.997762443299961
  endloop
endfacet
facet normal -2.644073704823352e-16 0.49999999373356324 0.8660254074023676
  outer loop
    vertex 8.513375005722045 8.593192717195182 1.1472691528756165
    vertex 14.913375005722042 1.9239427597003935 4.997762346784473
    vertex 14.913375005722044 8.593192717195182 1.1472691528756178
  endloop
endfacet
facet normal -2.644073704823352e-16 0.49999999373356324 0.8660254074023676
  outer loop
    vertex 14.913375005722042 1.9239427597003935 4.997762346784473
    vertex 8.513375005722045 8.593192717195182 1.1472691528756165
    vertex 8.513375005722041 1.9239427597003935 4.99776234678447
  endloop
endfacet
facet normal 2.209189223394063e-24 1.0 -7.235857544209037e-09
  outer loop
    vertex 8.513375005722041 1.9239427597003935 4.99776234678447
    vertex 14.913375005722042 1.9239428154236349 12.698748831117689
    vertex 14.913375005722042 1.9239427597003935 4.997762346784473
  endloop
endfacet
facet normal 2.209189223394063e-24 1.0 -7.235857544209037e-09
  outer loop
    vertex 14.913375005722042 1.9239428154236349 12.698748831117689
    vertex 8.513375005722041 1.9239427597003935 4.99776234678447
    vertex 8.513375005722041 1.9239428154236349 12.698748831117687
  endloop
endfacet
endsolid cap2
